<svg width="122" height="20" viewBox="0 0 122 20" xmlns="http://www.w3.org/2000/svg">
    <path d="M10.717 15.108c-.333.692-.8 1.24-1.402 1.644-.602.404-1.308.606-2.116.606-.863 0-1.596-.202-2.198-.606a3.947 3.947 0 0 1-1.388-1.644c-.324-.692-.486-1.46-.486-2.305 0-.862.162-1.635.486-2.318a3.933 3.933 0 0 1 1.402-1.63c.61-.405 1.348-.607 2.21-.607.827 0 1.537.202 2.13.606a4.025 4.025 0 0 1 1.376 1.618c.323.673.485 1.442.485 2.304 0 .863-.166 1.64-.499 2.332m.378-8.545c-1.052-.637-2.324-.957-3.815-.957-1.51 0-2.81.32-3.896.957A6.545 6.545 0 0 0 .876 9.151C.292 10.238 0 11.465 0 12.83c0 1.311.256 2.51.768 3.598.513 1.087 1.245 1.954 2.198 2.6.952.648 2.085.97 3.397.97.845 0 1.581-.134 2.21-.403a4.89 4.89 0 0 0 1.591-1.065 6.21 6.21 0 0 0 1.052-1.415h.054v2.56h3.1v-6.9c0-1.33-.283-2.538-.849-3.625a6.468 6.468 0 0 0-2.426-2.588m25.586-.162c-.944-.53-2.09-.795-3.438-.795-.647 0-1.271.081-1.873.243a5.44 5.44 0 0 0-1.672.768c-.512.35-.948.787-1.308 1.308h-.027a5.034 5.034 0 0 0-1.307-1.308 5.469 5.469 0 0 0-1.658-.768 7.046 7.046 0 0 0-1.86-.243c-1.331 0-2.472.266-3.425.795-.953.53-1.68 1.24-2.184 2.13a5.836 5.836 0 0 0-.755 2.924v8.222h3.074v-8.222c0-.592.148-1.132.445-1.617a3.33 3.33 0 0 1 1.186-1.159 3.239 3.239 0 0 1 1.658-.431c.611 0 1.164.144 1.658.431a3.45 3.45 0 0 1 1.2 1.16c.306.484.459 1.024.459 1.616v8.222h3.073v-8.222c0-.592.148-1.132.445-1.617a3.299 3.299 0 0 1 1.2-1.159 3.311 3.311 0 0 1 1.671-.431c.63 0 1.187.144 1.672.431.485.288.876.674 1.173 1.16.296.484.445 1.024.445 1.616v8.222h3.073v-8.222a5.84 5.84 0 0 0-.755-2.924c-.503-.89-1.226-1.6-2.17-2.13m15.664 8.707c-.332.692-.8 1.24-1.402 1.644-.602.404-1.307.606-2.116.606-.863 0-1.596-.202-2.198-.606a3.947 3.947 0 0 1-1.388-1.644c-.324-.692-.485-1.46-.485-2.305 0-.862.161-1.635.485-2.318a3.933 3.933 0 0 1 1.402-1.63c.61-.405 1.348-.607 2.21-.607.827 0 1.538.202 2.13.606a4.025 4.025 0 0 1 1.376 1.618c.323.673.485 1.442.485 2.304 0 .863-.166 1.64-.499 2.332m.378-8.545c-1.052-.637-2.324-.957-3.815-.957-1.51 0-2.809.32-3.896.957a6.545 6.545 0 0 0-2.508 2.588c-.584 1.087-.876 2.314-.876 3.68 0 1.311.256 2.51.769 3.598.512 1.087 1.244 1.954 2.197 2.6.952.648 2.085.97 3.397.97.845 0 1.581-.134 2.21-.403a4.89 4.89 0 0 0 1.592-1.065 6.21 6.21 0 0 0 1.051-1.415h.054v2.56h3.1v-6.9c0-1.33-.282-2.538-.849-3.625a6.468 6.468 0 0 0-2.426-2.588m15.166 5.162c-.701-.305-1.546-.458-2.535-.458H62.74c-.45 0-.809-.135-1.079-.405a1.292 1.292 0 0 1-.404-.943c0-.377.135-.696.404-.957.27-.26.611-.39 1.025-.39h6.093V5.93h-6.39c-.79 0-1.5.189-2.13.566a4.299 4.299 0 0 0-1.496 1.482A3.84 3.84 0 0 0 58.21 10c0 .916.198 1.676.594 2.278a3.518 3.518 0 0 0 1.617 1.334c.683.287 1.465.431 2.346.431h2.696c.305 0 .575.067.809.202.233.135.413.31.54.526.125.216.188.467.188.755 0 .251-.068.494-.202.727a1.55 1.55 0 0 1-.567.566 1.63 1.63 0 0 1-.849.216H58.75v2.642h6.956c.826 0 1.568-.194 2.224-.58a4.24 4.24 0 0 0 1.55-1.563 4.172 4.172 0 0 0 .566-2.116c0-.934-.184-1.707-.552-2.318-.369-.611-.903-1.07-1.604-1.375m14.815-5.324c-.89-.53-1.964-.795-3.222-.795a6.47 6.47 0 0 0-2.238.405 4.98 4.98 0 0 0-1.941 1.294V0h-3.1v19.677h3.1V11.67c0-.664.162-1.257.485-1.779a3.36 3.36 0 0 1 1.294-1.213 3.616 3.616 0 0 1 1.726-.431c.647 0 1.235.148 1.766.445.53.296.961.71 1.294 1.24.332.53.499 1.145.499 1.846v7.898h3.073v-7.925c0-1.186-.233-2.241-.7-3.167A5.246 5.246 0 0 0 82.703 6.4m8.02 5.297c.055-.431.158-.858.31-1.28.153-.422.374-.8.661-1.132a3.356 3.356 0 0 1 1.052-.809c.413-.206.89-.31 1.429-.31.467 0 .88.067 1.24.202s.67.315.93.54c.26.224.476.489.647.794.17.306.297.63.378.97.08.342.13.684.148 1.025h-6.794zm7.092-5.148c-.953-.629-2.167-.944-3.64-.944-1.312 0-2.472.306-3.478.917-1.007.61-1.798 1.455-2.373 2.534-.575 1.078-.863 2.327-.863 3.746 0 1.348.324 2.538.971 3.572.647 1.033 1.55 1.842 2.71 2.425 1.159.585 2.511.877 4.057.877h3.694v-2.642H95.2c-.773 0-1.474-.121-2.103-.364a3.874 3.874 0 0 1-1.563-1.078c-.414-.476-.674-1.074-.782-1.792h9.76c.036-.126.062-.306.08-.54.018-.233.028-.44.028-.62 0-1.311-.23-2.497-.688-3.557a5.666 5.666 0 0 0-2.116-2.534zM112.63 6.4c-.98-.53-2.135-.795-3.465-.795s-2.49.266-3.478.795c-.989.53-1.752 1.258-2.292 2.184-.539.926-.808 1.98-.808 3.167v7.925h3.1v-7.898c0-.7.157-1.316.472-1.846.314-.53.737-.944 1.267-1.24a3.45 3.45 0 0 1 1.712-.445c.63 0 1.209.148 1.74.445.53.296.956.71 1.28 1.24.323.53.485 1.145.485 1.846v7.898h3.074v-7.925c0-1.186-.27-2.241-.809-3.167-.54-.926-1.299-1.653-2.278-2.184m8.735 9.92c-.422-.422-.921-.634-1.496-.634-.593 0-1.101.212-1.523.634-.423.422-.634.92-.634 1.496 0 .593.211 1.1.634 1.523.422.422.93.633 1.523.633.395 0 .755-.094 1.078-.283a2.07 2.07 0 0 0 .769-.782c.189-.332.283-.696.283-1.091 0-.575-.212-1.074-.634-1.496" fill="#EFEFEF" fill-rule="evenodd"/>
</svg>
