<svg width="120" height="40" viewBox="0 0 120 40" fill="none" xmlns="http://www.w3.org/2000/svg">
<g clip-path="url(#clip0_3033_36902)">
<g clip-path="url(#clip1_3033_36902)">
<g clip-path="url(#clip2_3033_36902)">
<path fill-rule="evenodd" clip-rule="evenodd" d="M51.9685 21.9701V16.378C51.9685 15.5848 51.78 15.0093 51.4036 14.6524C51.0263 14.2955 50.5545 14.1174 49.9853 14.1174C49.4163 14.1174 48.9274 14.2922 48.5575 14.6427C48.1876 14.9931 48.0022 15.5718 48.0022 16.378V21.9701H45.6426V16.378C45.6426 15.6115 45.7487 14.947 45.96 14.3853C46.1711 13.8235 46.4586 13.3606 46.8228 12.9972C47.1862 12.6337 47.6193 12.3626 48.122 12.1838C48.6247 12.0057 49.1662 11.9159 49.7482 11.9159C50.4888 11.9159 51.1462 12.0648 51.7217 12.3618C52.2972 12.6597 52.7626 13.0853 53.1197 13.6406H53.1593C53.5033 13.0853 53.9623 12.6588 54.5378 12.3618C55.1125 12.0639 55.7771 11.9159 56.5307 11.9159C57.1127 11.9159 57.6543 12.0049 58.1569 12.1838C58.6596 12.3626 59.0927 12.6329 59.4562 12.9972C59.8195 13.3606 60.107 13.8235 60.3191 14.3853C60.5303 14.947 60.6363 15.6115 60.6363 16.378V21.9701H58.276V16.378C58.276 15.5718 58.0906 14.9931 57.7206 14.6427C57.3507 14.2922 56.8748 14.1174 56.2928 14.1174C55.7108 14.1174 55.255 14.2955 54.8843 14.6524C54.5143 15.0093 54.329 15.5848 54.329 16.378V21.9701H51.9685ZM64.0863 11.0037C63.65 11.0037 63.2801 10.8515 62.9757 10.548C62.6713 10.2436 62.5191 9.87373 62.5191 9.43747C62.5191 9.00121 62.6713 8.6111 62.9757 8.30677C63.2801 8.00244 63.65 7.85107 64.0863 7.85107C64.5225 7.85107 64.9095 8.00324 65.2066 8.30677C65.5044 8.6111 65.6525 8.98746 65.6525 9.43747C65.6525 9.8875 65.5036 10.2436 65.2066 10.548C64.9087 10.8523 64.5355 11.0037 64.0863 11.0037ZM62.9166 21.9701V12.1741H65.2762V21.9701H62.9166ZM74.8757 16.8734C74.8757 15.9344 74.6506 15.2408 74.2014 14.7907C73.7521 14.3416 73.1499 14.1165 72.3962 14.1165C71.6426 14.1165 71.0411 14.3416 70.5911 14.7907C70.1418 15.24 69.9169 15.9344 69.9169 16.8734V21.9701H67.5572V16.8734C67.5572 16.0534 67.673 15.3363 67.9045 14.722C68.136 14.1069 68.463 13.5913 68.8864 13.1753C69.3098 12.7584 69.8189 12.4443 70.4138 12.2331C71.0088 12.0219 71.6702 11.9159 72.397 11.9159C73.124 11.9159 73.7853 12.0178 74.3802 12.2234C74.9752 12.4282 75.4844 12.739 75.9069 13.1558C76.3302 13.5719 76.6573 14.0914 76.8888 14.7123C77.1203 15.3339 77.236 16.0542 77.236 16.8742V21.9709H74.8757V16.8734ZM86.4971 12.1741H88.8575V17.2708C88.8575 18.0906 88.7418 18.8078 88.5103 19.4221C88.2788 20.0372 87.9518 20.5528 87.5284 20.9689C87.105 21.3857 86.5967 21.6997 86.0018 21.911C85.4068 22.1222 84.7455 22.2283 84.0186 22.2283C83.2916 22.2283 82.6303 22.1254 82.0354 21.9207C81.4404 21.7159 80.9313 21.4051 80.5079 20.9883C80.0845 20.5723 79.7575 20.0526 79.526 19.4318C79.2945 18.8102 79.1788 18.0898 79.1788 17.27V12.1732H81.5383V17.27C81.5383 18.2088 81.7634 18.9025 82.2127 19.3525C82.6619 19.8017 83.2642 20.0267 84.0177 20.0267C84.7713 20.0267 85.3728 19.8017 85.8228 19.3525C86.2721 18.9033 86.4971 18.2088 86.4971 17.27V12.1741ZM98.8132 18.2024C98.8132 18.8766 98.7177 19.4682 98.5258 19.9774C98.334 20.4864 98.0595 20.9065 97.7026 21.2368C97.3455 21.5669 96.9223 21.8154 96.4333 21.9806C95.9444 22.1457 95.402 22.2283 94.8071 22.2283C94.2121 22.2283 93.6698 22.1457 93.1808 21.9806C92.6919 21.8154 92.2686 21.5677 91.9116 21.2368C91.5547 20.9065 91.2802 20.4864 91.0884 19.9774C90.8965 19.4682 90.801 18.8766 90.801 18.2024V8.90247H93.1606V12.1741H98.2182V14.3157H93.1606V18.2024C93.1606 18.8636 93.3128 19.3331 93.6172 19.6107C93.9215 19.8883 94.3182 20.0275 94.8071 20.0275C95.296 20.0275 95.6926 19.8915 95.997 19.6212C96.3014 19.35 96.4536 18.8774 96.4536 18.2032V17.9458H98.8132V18.2024ZM102.403 17.9053V17.945C102.562 18.6062 102.882 19.1282 103.365 19.5112C103.847 19.8948 104.459 20.0866 105.199 20.0866C106.257 20.0866 107.03 19.7758 107.519 19.1542H110.038C109.668 20.0931 109.059 20.8402 108.213 21.3954C107.368 21.9506 106.362 22.2283 105.199 22.2283C104.419 22.2283 103.708 22.0996 103.067 21.8414C102.426 21.5832 101.871 21.2263 101.401 20.7706C100.932 20.3141 100.568 19.7693 100.31 19.1348C100.051 18.5002 99.9225 17.813 99.9225 17.0725C99.9225 16.3318 100.051 15.6447 100.31 15.0101C100.567 14.3756 100.932 13.8301 101.401 13.3744C101.871 12.9179 102.426 12.5609 103.067 12.3035C103.708 12.0454 104.419 11.9167 105.199 11.9167C105.98 11.9167 106.673 12.0454 107.321 12.3035C107.969 12.5609 108.521 12.9179 108.978 13.3744C109.433 13.8301 109.79 14.3756 110.049 15.0101C110.307 15.6447 110.435 16.3318 110.435 17.0725V17.9053H102.403ZM105.2 14.0583C104.499 14.0583 103.913 14.2298 103.445 14.5739C102.975 14.9178 102.648 15.3865 102.463 15.9822V16.0219H107.937V15.9822C107.751 15.3873 107.421 14.9178 106.945 14.5739C106.469 14.2298 105.887 14.0583 105.2 14.0583ZM117.278 14.9899C117.251 14.6855 117.106 14.4411 116.842 14.2558C116.577 14.0704 116.214 13.9782 115.751 13.9782C115.221 13.9782 114.829 14.0842 114.57 14.2955C114.312 14.5067 114.183 14.7778 114.183 15.1089C114.183 15.3994 114.322 15.6042 114.6 15.7232C114.877 15.8422 115.228 15.9344 115.652 16.0008C116.075 16.0672 116.527 16.1327 117.01 16.1991C117.492 16.2655 117.946 16.3974 118.368 16.5957C118.792 16.794 119.141 17.0781 119.419 17.4479C119.697 17.8179 119.837 18.3408 119.837 19.015C119.837 19.4779 119.741 19.9069 119.549 20.3035C119.357 20.7001 119.083 21.0408 118.726 21.3249C118.369 21.6091 117.936 21.8309 117.426 21.9895C116.918 22.1481 116.353 22.2275 115.731 22.2275C115.109 22.2275 114.547 22.1481 114.045 21.9895C113.543 21.8309 113.113 21.6122 112.757 21.3346C112.4 21.057 112.122 20.7268 111.924 20.3431C111.725 19.9595 111.619 19.537 111.606 19.074H113.986C113.999 19.4043 114.148 19.6689 114.432 19.8672C114.716 20.0655 115.136 20.1651 115.691 20.1651C116.326 20.1651 116.779 20.0591 117.05 19.8479C117.32 19.6366 117.456 19.359 117.456 19.015C117.456 18.7244 117.317 18.5228 117.039 18.4104C116.761 18.2979 116.411 18.2121 115.988 18.1522C115.564 18.0922 115.111 18.03 114.629 17.9635C114.147 17.8972 113.693 17.7685 113.271 17.5766C112.848 17.3849 112.497 17.0975 112.219 16.7138C111.942 16.3302 111.803 15.7952 111.803 15.108C111.803 14.6451 111.895 14.2185 112.08 13.8293C112.266 13.4391 112.526 13.1024 112.864 12.8174C113.202 12.5334 113.611 12.3116 114.093 12.1529C114.576 11.9943 115.115 11.915 115.71 11.915C116.305 11.915 116.841 11.9943 117.316 12.1529C117.792 12.3116 118.199 12.5301 118.537 12.8077C118.874 13.0853 119.135 13.4092 119.32 13.7799C119.506 14.1497 119.604 14.5528 119.618 14.989L117.278 14.9899Z" fill="white"/>
<path fill-rule="evenodd" clip-rule="evenodd" d="M45.6582 32.4136V28.964H46.4912L47.7378 31.2109V28.964H48.5311V32.4136H47.6989L46.4572 30.1959V32.4136H45.6582ZM116.972 32.4136V28.964H117.805L119.052 31.2109V28.964H119.845V32.4136H119.013L117.771 30.1959V32.4136H116.972ZM52.0182 32.4136V28.964H54.1236V29.6059H52.8171V30.3878H54.1236V31.0134H52.8171V31.7734H54.1236V32.4128L52.0182 32.4136ZM111.109 32.4136V28.964H113.215V29.6059H111.908V30.3878H113.215V31.0134H111.908V31.7734H113.215V32.4128L111.109 32.4136ZM57.4861 29.6545V28.964H59.8466V29.6545H59.0622V32.4136H58.2632V29.6545H57.4861ZM92.8598 29.6545V28.964H95.2201V29.6545H94.4357V32.4136H93.6369V29.6545H92.8598ZM62.8222 28.964H63.6648L64.3698 31.2255L65.0692 28.964H65.6852L66.3903 31.2255L67.0897 28.964H67.9322L66.714 32.4136H66.0649L65.3792 30.2461L64.6936 32.4136H64.0395L62.8222 28.964ZM70.2142 30.6888C70.2142 30.4533 70.2554 30.2259 70.3372 30.0074C70.4189 29.788 70.5388 29.5954 70.6966 29.4278C70.8545 29.2603 71.0463 29.1267 71.2721 29.0272C71.4988 28.9276 71.7538 28.8774 72.0403 28.8774C72.3269 28.8774 72.5819 28.9276 72.8061 29.0272C73.0319 29.1267 73.2238 29.2603 73.3808 29.4278C73.5395 29.5954 73.6593 29.788 73.7402 30.0074C73.822 30.2259 73.8632 30.4533 73.8632 30.6888C73.8632 30.9244 73.822 31.1518 73.7402 31.3712C73.6593 31.5905 73.5395 31.7831 73.3808 31.9507C73.2229 32.1183 73.0319 32.2518 72.8061 32.3522C72.581 32.4525 72.3261 32.5027 72.0403 32.5027C71.7546 32.5027 71.4988 32.4525 71.2721 32.3522C71.0463 32.2518 70.8545 32.1183 70.6966 31.9507C70.5379 31.7831 70.4181 31.5905 70.3372 31.372C70.2554 31.1542 70.2142 30.926 70.2142 30.6888ZM71.0326 30.6888C71.0326 30.8305 71.0552 30.9664 71.1014 31.0976C71.1475 31.2295 71.213 31.3461 71.2997 31.4481C71.3862 31.55 71.4915 31.6309 71.617 31.6917C71.7424 31.7524 71.8841 31.7831 72.0411 31.7831C72.1982 31.7831 72.339 31.7524 72.4645 31.6917C72.5891 31.6309 72.6952 31.5492 72.7834 31.4481C72.8708 31.3461 72.9372 31.2295 72.9826 31.0976C73.0287 30.9664 73.0506 30.8297 73.0506 30.6888C73.0506 30.548 73.0287 30.4121 72.9826 30.2801C72.9365 30.1489 72.87 30.0324 72.7834 29.9304C72.6952 29.8285 72.5899 29.7475 72.4653 29.6876C72.3414 29.6277 72.199 29.597 72.0403 29.597C71.8817 29.597 71.7424 29.6277 71.6162 29.6876C71.4915 29.7475 71.3854 29.8293 71.2989 29.9304C71.2114 30.0324 71.1459 30.1489 71.1005 30.2801C71.0544 30.4121 71.0326 30.5488 71.0326 30.6888ZM98.2217 30.6888C98.2217 30.4533 98.2629 30.2259 98.3447 30.0074C98.4264 29.788 98.5462 29.5954 98.704 29.4278C98.8619 29.2603 99.0537 29.1267 99.2793 29.0272C99.5064 28.9276 99.7612 28.8774 100.048 28.8774C100.334 28.8774 100.589 28.9276 100.813 29.0272C101.039 29.1267 101.232 29.2603 101.388 29.4278C101.547 29.5954 101.667 29.788 101.748 30.0074C101.829 30.2259 101.871 30.4533 101.871 30.6888C101.871 30.9244 101.829 31.1518 101.748 31.3712C101.667 31.5905 101.547 31.7831 101.388 31.9507C101.231 32.1183 101.039 32.2518 100.813 32.3522C100.588 32.4525 100.333 32.5027 100.048 32.5027C99.7622 32.5027 99.5064 32.4525 99.2793 32.3522C99.0537 32.2518 98.8619 32.1183 98.704 31.9507C98.5454 31.7831 98.4256 31.5905 98.3447 31.372C98.2629 31.1542 98.2217 30.926 98.2217 30.6888ZM99.0401 30.6888C99.0401 30.8305 99.0627 30.9664 99.1088 31.0976C99.155 31.2295 99.2208 31.3461 99.3071 31.4481C99.3933 31.55 99.4994 31.6309 99.6244 31.6917C99.7503 31.7524 99.8921 31.7831 100.049 31.7831C100.205 31.7831 100.346 31.7524 100.472 31.6917C100.597 31.6309 100.703 31.5492 100.791 31.4481C100.879 31.3461 100.945 31.2295 100.99 31.0976C101.036 30.9664 101.058 30.8297 101.058 30.6888C101.058 30.548 101.036 30.4121 100.99 30.2801C100.944 30.1489 100.878 30.0324 100.791 29.9304C100.703 29.8285 100.597 29.7475 100.473 29.6876C100.349 29.6277 100.206 29.597 100.048 29.597C99.8891 29.597 99.7503 29.6277 99.6234 29.6876C99.4994 29.7475 99.3933 29.8293 99.3061 29.9304C99.2188 30.0324 99.1533 30.1489 99.108 30.2801C99.0619 30.4121 99.0401 30.5488 99.0401 30.6888ZM76.9352 32.4144V28.9649H78.3841C78.5743 28.9649 78.7483 28.9988 78.9021 29.066C79.0576 29.1332 79.1895 29.2239 79.2996 29.338C79.4097 29.4521 79.4947 29.5841 79.5538 29.7346C79.6129 29.8859 79.6429 30.0454 79.6429 30.2138C79.6429 30.4574 79.5829 30.6783 79.4631 30.8766C79.3425 31.0749 79.1742 31.2246 78.9572 31.3259L79.6477 32.4153H78.7217L78.1105 31.4602H77.7349V32.4153H76.936L76.9352 32.4144ZM77.7341 30.807H78.2805C78.3622 30.807 78.4384 30.7908 78.508 30.7576C78.5776 30.7245 78.6359 30.6816 78.6836 30.6281C78.7306 30.5739 78.767 30.5116 78.7945 30.4395C78.8204 30.3676 78.8342 30.2914 78.8342 30.2129C78.8342 30.1345 78.8212 30.0583 78.7945 29.9855C78.767 29.9135 78.7306 29.8495 78.6836 29.7961C78.6359 29.7427 78.5776 29.699 78.5088 29.6666C78.44 29.6334 78.3638 29.6172 78.2805 29.6172H77.7341V30.807ZM83.0652 28.9649H83.8642V30.4298L84.978 28.9649H85.938L84.5741 30.6897L85.938 32.4153H84.978L83.8642 30.9576V32.4153H83.0652V28.9649ZM105.001 28.9649H105.8V30.4298L106.915 28.9649H107.875L106.51 30.6897L107.875 32.4153H106.915L105.8 30.9576V32.4153H105.001V28.9649Z" fill="white"/>
<path d="M19.8456 39.66C30.7985 39.66 39.6774 30.7818 39.6774 19.83C39.6774 8.87819 30.7985 0 19.8456 0C8.89271 0 0.0136719 8.87819 0.0136719 19.83C0.0136719 30.7818 8.89271 39.66 19.8456 39.66Z" fill="#180C70"/>
<path d="M19.8451 37.0701C29.3674 37.0701 37.0867 29.3514 37.0867 19.8301C37.0867 10.3087 29.3674 2.59009 19.8451 2.59009C10.3228 2.59009 2.60352 10.3087 2.60352 19.8301C2.60352 29.3514 10.3228 37.0701 19.8451 37.0701Z" fill="url(#paint0_linear_3033_36902)"/>
<path fill-rule="evenodd" clip-rule="evenodd" d="M8.82113 30.3878V10.7147C8.82113 10.4404 9.05829 10.2178 9.35132 10.2178C9.4177 10.2178 9.48164 10.2291 9.53992 10.2502C19.222 12.7471 28.1859 21.1534 30.8442 30.2258C30.9212 30.4897 30.7552 30.7617 30.4735 30.8337C30.3456 30.8661 30.2153 30.8515 30.1052 30.8013L18.6254 25.6035L9.62816 30.8078C9.37966 30.9518 9.05425 30.879 8.90045 30.6467C8.84702 30.5658 8.82193 30.4751 8.82193 30.387H8.82031L8.82113 30.3878Z" fill="#180C70"/>
<path fill-rule="evenodd" clip-rule="evenodd" d="M29.86 22.3076C28.8943 20.7568 27.7878 19.291 26.5565 17.9272C25.31 16.5464 23.9403 15.2724 22.4639 14.1198C22.2396 13.945 22.2089 13.6334 22.3959 13.4238C22.4347 13.3801 22.4801 13.3445 22.5286 13.3161V13.3145C23.7162 12.6435 24.9603 12.0446 26.253 11.525C27.5197 11.0158 28.8368 10.5836 30.1959 10.2356C30.4776 10.1643 30.7682 10.319 30.8442 10.5836C30.8572 10.6266 30.8629 10.6702 30.8629 10.7131H30.8653V22.0866C30.8653 22.3611 30.6281 22.5836 30.3351 22.5836C30.1263 22.5836 29.9458 22.4711 29.8592 22.3068L29.86 22.3076Z" fill="#180C70"/>
<path fill-rule="evenodd" clip-rule="evenodd" d="M8.82503 28.9473V9.2743C8.82503 8.99993 9.06221 8.77734 9.35523 8.77734C9.42161 8.77734 9.48556 8.78868 9.54384 8.80972C19.2259 11.3067 28.1898 19.713 30.8482 28.7854C30.9251 29.0492 30.7591 29.3212 30.4774 29.3933C30.3495 29.4256 30.2192 29.411 30.1091 29.3609L18.6293 24.163L9.63206 29.3673C9.38356 29.5114 9.05815 29.4386 8.90436 29.2063C8.85093 29.1254 8.82584 29.0347 8.82584 28.9465H8.82422L8.82503 28.9473Z" fill="url(#paint1_linear_3033_36902)"/>
<path fill-rule="evenodd" clip-rule="evenodd" d="M29.8638 20.866C28.8982 19.3152 27.7916 17.8494 26.5604 16.4855C25.3138 15.1048 23.9442 13.8308 22.4677 12.6782C22.2435 12.5034 22.2128 12.1917 22.3998 11.9821C22.4386 11.9384 22.484 11.9028 22.5326 11.8744V11.8729C23.72 11.2019 24.9641 10.6029 26.2568 10.0833C27.5237 9.57419 28.8407 9.14198 30.1997 8.79394C30.4814 8.72272 30.772 8.87731 30.8482 9.14198C30.8611 9.18488 30.8668 9.22859 30.8668 9.27148H30.8692V20.6458C30.8692 20.9202 30.632 21.1428 30.339 21.1428C30.1301 21.1428 29.9505 21.0303 29.8638 20.866Z" fill="#00D5FF"/>
</g>
</g>
</g>
<defs>
<linearGradient id="paint0_linear_3033_36902" x1="17.5632" y1="5.80848" x2="34.2932" y2="56.3577" gradientUnits="userSpaceOnUse">
<stop stop-color="#3018E0"/>
<stop offset="0.19" stop-color="#2E17DA"/>
<stop offset="0.45" stop-color="#2B15C9"/>
<stop offset="0.73" stop-color="#2511AE"/>
<stop offset="1" stop-color="#1E0E8F"/>
</linearGradient>
<linearGradient id="paint1_linear_3033_36902" x1="0.0175945" y1="19.8313" x2="119.844" y2="19.8313" gradientUnits="userSpaceOnUse">
<stop stop-color="#FF00E6"/>
<stop offset="0.13" stop-color="#F900E6"/>
<stop offset="0.31" stop-color="#E800E9"/>
<stop offset="0.51" stop-color="#CD00EE"/>
<stop offset="0.73" stop-color="#A700F5"/>
<stop offset="0.96" stop-color="#7800FD"/>
<stop offset="1" stop-color="#6E00FF"/>
</linearGradient>
<clipPath id="clip0_3033_36902">
<rect width="120" height="39.66" fill="white"/>
</clipPath>
<clipPath id="clip1_3033_36902">
<rect width="120" height="39.66" fill="white"/>
</clipPath>
<clipPath id="clip2_3033_36902">
<rect width="119.971" height="39.66" fill="white" transform="translate(0.0136719)"/>
</clipPath>
</defs>
</svg>
