<?xml version="1.0" encoding="utf-8"?>
<!-- Uploaded to: SVG Repo, www.svgrepo.com, Generator: SVG Repo Mixer Tools -->
<svg xmlns="http://www.w3.org/2000/svg" xmlns:xlink="http://www.w3.org/1999/xlink" version="1.1" id="servers"  viewBox="0 0 196 210.3197" enable-background="new 0 0 196 210.3197" xml:space="preserve" width="512" height="512">
<g>
	<circle fill="#D0E8FF" cx="162" cy="172.3197" r="6"/>
	<path fill="#5CB0FF" d="M8,154.3197v36h4h8h156h8h4v-36h-84h-8H8z M28,182.3197h-8v-20h8V182.3197z M48,182.3197h-8v-20h8V182.3197   z M68,182.3197h-8v-20h8V182.3197z M162,158.3197c7.7188,0,14,6.2812,14,14s-6.2812,14-14,14s-14-6.2812-14-14   S154.2812,158.3197,162,158.3197z"/>
	<circle fill="#D0E8FF" cx="162" cy="112.3197" r="6"/>
	<path fill="#D0E8FF" d="M8,94.3197v36h180v-36h-84h-8H8z M28,122.3197h-8v-20h8V122.3197z M48,122.3197h-8v-20h8V122.3197z    M68,122.3197h-8v-20h8V122.3197z M162,98.3197c7.7188,0,14,6.2812,14,14s-6.2812,14-14,14s-14-6.2812-14-14   S154.2812,98.3197,162,98.3197z"/>
	<circle fill="#D0E8FF" cx="162" cy="52.3197" r="6"/>
	<path fill="#5CB0FF" d="M188,34.3197H8v36h180V34.3197z M28,62.3197h-8v-20h8V62.3197z M48,62.3197h-8v-20h8V62.3197z M68,62.3197   h-8v-20h8V62.3197z M162,66.3197c-7.7188,0-14-6.2812-14-14s6.2812-14,14-14s14,6.2812,14,14S169.7188,66.3197,162,66.3197z"/>
	<path fill="#1C71DA" d="M196,78.3197v-52H0v52h96v8H0v52h96v8H0v52h12v12h8v-12h156v12h8v-12h12v-52h-92v-8h92v-52h-92v-8H196z    M188,154.3197v36h-4h-8H20h-8H8v-36h88h8H188z M188,94.3197v36H8v-36h88h8H188z M8,34.3197h180v36H8V34.3197z"/>
	<path fill="#1C71DA" d="M162,38.3197c-7.7188,0-14,6.2812-14,14s6.2812,14,14,14s14-6.2812,14-14S169.7188,38.3197,162,38.3197z    M162,58.3197c-3.3086,0-6-2.6914-6-6s2.6914-6,6-6s6,2.6914,6,6S165.3086,58.3197,162,58.3197z"/>
	<rect x="20" y="42.3197" fill="#1C71DA" width="8" height="20"/>
	<rect x="40" y="42.3197" fill="#FFFFFF" width="8" height="20"/>
	<rect x="60" y="42.3197" fill="#1C71DA" width="8" height="20"/>
	<path fill="#1C71DA" d="M162,126.3197c7.7188,0,14-6.2812,14-14s-6.2812-14-14-14s-14,6.2812-14,14S154.2812,126.3197,162,126.3197   z M162,106.3197c3.3086,0,6,2.6914,6,6s-2.6914,6-6,6s-6-2.6914-6-6S158.6914,106.3197,162,106.3197z"/>
	<rect x="20" y="102.3197" fill="#1C71DA" width="8" height="20"/>
	<rect x="40" y="102.3197" fill="#1C71DA" width="8" height="20"/>
	<rect x="60" y="102.3197" fill="#1C71DA" width="8" height="20"/>
	<path fill="#1C71DA" d="M162,186.3197c7.7188,0,14-6.2812,14-14s-6.2812-14-14-14s-14,6.2812-14,14S154.2812,186.3197,162,186.3197   z M162,166.3197c3.3086,0,6,2.6914,6,6s-2.6914,6-6,6s-6-2.6914-6-6S158.6914,166.3197,162,166.3197z"/>
	<rect x="20" y="162.3197" fill="#1C71DA" width="8" height="20"/>
	<rect x="40" y="162.3197" fill="#FFFFFF" width="8" height="20"/>
	<rect x="60" y="162.3197" fill="#1C71DA" width="8" height="20"/>
</g>
<path fill="#FF5D5D" d="M80.2524,22.1434c-1.0239,0-2.0474-0.3906-2.8286-1.1714c-1.562-1.5625-1.562-4.0947,0-5.6572  L91.5659,1.1727c1.5625-1.5615,4.0947-1.5615,5.6572,0c1.562,1.5625,1.562,4.0947,0,5.6572L83.0811,20.972  C82.2998,21.7528,81.2764,22.1434,80.2524,22.1434z"/>
<path fill="#FF5D5D" d="M94.3945,22.142c-1.0239,0-2.0474-0.3906-2.8286-1.1714L77.4238,6.828c-1.562-1.5625-1.562-4.0952,0-5.6572  c1.563-1.5615,4.0952-1.5605,5.6572,0l14.1421,14.1426c1.562,1.5625,1.562,4.0952,0,5.6572  C96.4419,21.7513,95.418,22.142,94.3945,22.142z"/>
<path fill="#00D40B" d="M106.2524,126.1434c-7.7197,0-14-6.2803-14-14s6.2803-14,14-14s14,6.2803,14,14  S113.9722,126.1434,106.2524,126.1434z M106.2524,106.1434c-3.3086,0-6,2.6914-6,6s2.6914,6,6,6s6-2.6914,6-6  S109.561,106.1434,106.2524,106.1434z"/>
<path fill="#FFC504" d="M127.5659,188.7689c-1.0239,0-2.0474-0.3906-2.8286-1.1714l-11.3135-11.3135  c-1.562-1.5625-1.562-4.0947,0-5.6572l11.3135-11.3135c1.5625-1.5615,4.0952-1.5615,5.6567,0l11.314,11.3135  c0.7505,0.7505,1.1719,1.7676,1.1719,2.8286s-0.4214,2.0781-1.1719,2.8286l-11.314,11.3135  C129.6133,188.3783,128.5894,188.7689,127.5659,188.7689z M121.9092,173.4554l5.6567,5.6567l5.6572-5.6567l-5.6572-5.6567  L121.9092,173.4554z"/>
</svg>