<svg width="280" height="36" viewBox="0 0 280 36" xmlns="http://www.w3.org/2000/svg">
    <path d="M9.09 28.582h8.511c6.755 0 9.045-3.126 9.045-9.151v-.904c0-.34-.229-.565-.573-.565h-1.259c-.343 0-.572.226-.572.565v.942c0 5.12-1.718 6.778-6.641 6.778h-8.51c-4.924 0-6.64-1.658-6.64-6.778v-8.323c0-5.158 1.716-6.816 6.64-6.816h8.51c4.923 0 6.64 1.658 6.64 6.816v.528c0 .338.23.565.573.565h1.26c.343 0 .572-.227.572-.565v-.49c0-6.063-2.29-9.188-9.045-9.188h-8.51C2.334 1.996.044 5.12.044 11.184v8.247c0 6.025 2.29 9.15 9.045 9.15m21.637 0h1.222c.343 0 .572-.225.572-.565V.565c0-.34-.229-.565-.572-.565h-1.222c-.343 0-.572.226-.572.565v27.451c0 .34.23.566.572.566m6.526-23.498h1.221c.343 0 .572-.226.572-.566V.565c0-.34-.229-.565-.572-.565h-1.221c-.343 0-.572.225-.572.565v3.953c0 .34.229.566.572.566m0 23.498h1.221c.343 0 .572-.226.572-.566V7.983c0-.339-.229-.565-.572-.565h-1.221c-.343 0-.572.226-.572.565v20.033c0 .34.229.566.572.566m6.525 0H45c.343 0 .572-.226.572-.566v-12.35c0-5.197 1.718-5.988 5.572-5.988h5.496c4.58 0 5.533 1.016 5.533 5.987v12.39c0 .338.23.564.573.564h1.22c.345 0 .574-.226.574-.565V15.778c0-5.8-1.336-8.36-7.9-8.36h-4.58c-4.007 0-5.763 1.017-6.488 3.164V7.983c0-.339-.23-.565-.572-.565h-1.222c-.343 0-.572.226-.572.565v20.033c0 .34.229.566.572.566m25.225 0h1.221c.344 0 .573-.226.573-.566V7.983c0-.339-.23-.565-.573-.565h-1.221c-.343 0-.572.226-.572.565v20.033c0 .34.229.566.572.566m0-23.498h1.221c.344 0 .573-.226.573-.566V.565c0-.34-.23-.565-.573-.565h-1.221c-.343 0-.572.225-.572.565v3.953c0 .34.229.566.572.566m13.395 23.498h6.335c5.954 0 7.785-1.92 7.9-7.946 0-.377-.229-.565-.573-.565h-1.22c-.344 0-.573.188-.573.565-.076 4.632-.992 5.686-5.572 5.686h-6.259c-4.618 0-5.572-1.017-5.572-5.987v-4.783c0-4.82.992-5.874 5.572-5.874h6.259c4.465 0 5.496.979 5.572 5.61 0 .377.229.565.572.565h1.221c.344 0 .573-.188.573-.564-.115-5.875-1.87-7.87-7.9-7.87h-6.335c-6.565 0-7.9 2.598-7.9 8.246v4.556c0 5.8 1.335 8.36 7.9 8.36m23.317-9.79 11.602-1.28v2.522c0 4.594-1.565 6.327-6.412 6.327h-4.313c-4.007 0-5.648-1.318-5.648-3.616 0-2.522.84-3.539 4.77-3.954m.878 9.792h3.74c4.657 0 6.107-1.243 6.985-3.728v3.163c0 .339.229.565.572.565h1.221c.344 0 .573-.226.573-.565V13.63c0-4.292-1.87-6.213-7.366-6.213h-11.45c-.343 0-.572.226-.572.566v1.129c0 .339.23.565.573.565h11.411c4.274 0 5.038 1.13 5.038 4.518 0 .716-.306 1.168-1.222 1.281l-10.686 1.167c-5.19.565-6.83 2.297-6.83 6.214 0 3.878 2.9 5.724 8.013 5.724m17.555 0h1.221c.343 0 .572-.226.572-.566V.565c0-.34-.229-.565-.572-.565h-1.221c-.344 0-.573.226-.573.565v27.451c0 .34.23.566.573.566m17.936-12.277h14.044c3.74 0 5.458 1.544 5.458 4.896v.414c0 3.426-1.718 4.632-6.64 4.632h-12.862v-9.942zm0-11.975h12.594c4.961 0 6.717 1.319 6.717 4.783v.452c0 3.239-1.603 4.556-5.305 4.556h-14.006v-9.79zm-1.832 24.252h14.77c6.45 0 9.006-2.034 9.006-6.854v-.34c0-4.292-2.29-5.535-3.969-6.174 1.641-.64 3.778-1.695 3.778-5.837V9c0-4.857-2.634-7.004-9.083-7.004h-14.502c-.343 0-.572.226-.572.564v25.456c0 .34.229.566.572.566zm29.384-13.03c0-4.82.993-5.874 5.572-5.874h5.305c4.58 0 5.572 1.054 5.572 5.874v1.657h-16.449v-1.657zm5.534 13.03h10.99c.344 0 .574-.226.574-.566v-1.129c0-.339-.23-.565-.573-.565h-10.953c-4.618 0-5.572-1.017-5.572-5.987v-.941h18.243c.343 0 .572-.227.572-.566v-3.163c0-5.648-1.336-8.246-7.9-8.246h-5.38c-6.566 0-7.901 2.598-7.901 8.246v4.556c0 5.8 1.335 8.36 7.9 8.36zm22.553-9.792 11.602-1.28v2.523c0 4.594-1.565 6.327-6.412 6.327H198.6c-4.007 0-5.649-1.318-5.649-3.616 0-2.522.84-3.539 4.771-3.954m.878 9.792h3.74c4.656 0 6.107-1.243 6.984-3.728v3.163c0 .339.229.565.573.565h1.22c.344 0 .573-.226.573-.565V13.63c0-4.292-1.87-6.213-7.365-6.213h-11.45c-.343 0-.572.226-.572.566v1.129c0 .339.23.565.572.565h11.411c4.275 0 5.038 1.13 5.038 4.518 0 .716-.305 1.168-1.221 1.281l-10.686 1.167c-5.19.565-6.831 2.297-6.831 6.214 0 3.878 2.9 5.724 8.014 5.724m24.843.037h4.275c4.007 0 5.762-1.017 6.488-3.163v2.598c0 .34.23.565.572.565H236c.344 0 .573-.225.573-.565V8.021c0-.339-.23-.565-.573-.565h-1.22c-.344 0-.573.226-.573.565v12.352c0 5.196-1.756 5.987-5.572 5.987h-5.152c-4.618 0-5.573-1.017-5.573-5.987V7.983c0-.339-.228-.565-.571-.565h-1.222c-.344 0-.573.226-.573.566v12.275c0 5.762 1.337 8.36 7.9 8.36M239.586 9.64h3.053v10.958c0 5.272 1.565 7.984 8.472 7.984h3.55c.343 0 .572-.226.572-.565v-1.092c0-.34-.23-.565-.573-.565h-3.55c-4.808 0-6.143-1.28-6.143-5.649V9.641h9.693c.344 0 .573-.227.573-.566V7.984c0-.34-.23-.566-.573-.566h-9.693V2.561c0-.34-.23-.565-.573-.565h-.535c-.343 0-.572.226-.572.602 0 4.594-.19 4.82-3.701 4.82-.382 0-.573.226-.573.566v1.091c0 .34.229.565.573.565m39.841-2.184h-1.22c-.344 0-.573.226-.573.565v12.05c0 5.159-1.718 5.988-5.534 5.988h-5.648c-4.58 0-5.534-1.055-5.534-5.988V7.984c0-.34-.23-.565-.573-.565h-1.22c-.345 0-.574.225-.574.565v11.974c0 5.762 1.336 8.36 7.9 8.36h4.733c4.084 0 5.763-1.017 6.45-3.276v2.711c0 4.255-1.069 5.987-5.687 5.987h-10.686c-.343 0-.573.226-.573.566v1.129c0 .339.23.565.573.565h10.686c6.564 0 8.053-3.2 8.053-8.36V8.02c0-.338-.23-.564-.573-.564M257.233 33.74H.477a.474.474 0 0 0-.477.472v1.317c0 .26.214.471.477.471h256.756a.474.474 0 0 0 .477-.471v-1.317a.474.474 0 0 0-.477-.472" fill="#FFF" fill-rule="evenodd"/>
</svg>
