<?xml version="1.0" encoding="UTF-8"?>

<!-- Uploaded to: SVG Repo, www.svgrepo.com, Generator: SVG Repo Mixer Tools -->
<svg width="800px" height="800px" viewBox="0 0 48 48" id="a" xmlns="http://www.w3.org/2000/svg">

<defs>

<style>.b{fill:none;stroke:#000000;stroke-linecap:round;stroke-linejoin:round;}</style>

</defs>
<path fill="#F0EFEF" d="M0 0h192.756v192.756H0V0z" />
<g>

<circle class="b" cx="31.3784" cy="8.1892" r="3.6892"/>

<path class="b" d="m27.1622,16.0947c4.366,0,7.9054,3.5394,7.9054,7.9054"/>

<path class="b" d="m24,16.0947c-.9784,0-1.9168-.3887-2.6087-1.0805-.6919-.6919-1.0805-1.6302-1.0805-2.6087"/>

<path class="b" d="m12.9325,8.1892c0-2.0375,1.6517-3.6892,3.6892-3.6892s3.6892,1.6517,3.6892,3.6892"/>

<path class="b" d="m20.3108,31.3784c0,1.318-.7032,2.5359-1.8446,3.1949-1.1414.659-2.5477.659-3.6892,0-1.1414-.659-1.8446-1.8769-1.8446-3.1949"/>

<path class="b" d="m35.0675,31.3784c0,1.318-.7031,2.5359-1.8446,3.1949-1.1414.659-2.5477.659-3.6892,0-1.1414-.659-1.8446-1.8769-1.8446-3.1949"/>

<path class="b" d="m20.3108,27.1622c0-2.0375,1.6517-3.6892,3.6892-3.6892s3.6892,1.6517,3.6892,3.6892"/>

</g>

<g>

<path class="b" d="m12.9325,31.3784V8.1893"/>

<path class="b" d="m20.3108,27.1622v4.2162"/>

<path class="b" d="m27.6892,27.1622v4.2162"/>

<path class="b" d="m20.3108,8.1892v4.2162"/>

<path class="b" d="m35.0675,24v7.3787"/>

<path class="b" d="m27.1622,16.0947h-3.1622"/>

</g>

</svg>