<svg xmlns="http://www.w3.org/2000/svg" width="50" height="50" viewBox="0 0 192.756 192.756"><g fill-rule="evenodd" clip-rule="evenodd"><path fill="#F0EFEF" d="M0 0h192.756v192.756H0V0z" /><path d="M162.9 19.083H34.06c-7.57 0-13.707 6.137-13.707 13.707v128.839c0 7.57 6.137 13.707 13.707 13.707H162.9c7.57 0 13.707-6.137 13.707-13.707V32.79c0-7.571-6.136-13.707-13.707-13.707zm-14.447 78.245s-4.932 49.322-4.963 49.561c-1.527 11.498-8.506 16.201-17.117 16.201-8.131 0-13.631-6.695-13.441-16.201.002-.143-.01-.283-.014-.424l3.27-26.922c1.291-9.299 1.848-22.934-12.293-22.934-13.947 0-19.542 9.609-20.694 18.908l-4.005 31.021c-1.526 10.014-8.337 16.99-16.691 16.312-8.849-.719-13.866-6.389-14.378-16.074l-.03-.984c-.001-.062.08-3.826.412-5.818l11.273-92.646c.001-1.31.91-4.996.91-4.996 1.922-6.472 7.65-10.641 14.746-10.641 8.238 0 14.83 6.379 15.452 14.457 0 0-.066 3.75-.267 5.021l-4.736 39.702h.347c8.344-8.678 19.58-15.84 33.445-16.26 7.891-.24 13.393.238 18.652 2.629 5.261 2.392 11.519 7.892 10.122 20.088zm-12.115-29.146c-9.471 0-17.15-7.679-17.15-17.151s7.68-17.151 17.15-17.151c9.473 0 17.15 7.679 17.15 17.151s-7.677 17.151-17.15 17.151zM176.656 12.223c0-3.611 2.941-6.554" /></g></svg>