<svg width="290" height="22" viewBox="0 0 290 22" xmlns="http://www.w3.org/2000/svg">
    <g fill="none" fill-rule="evenodd">
        <path d="M16.564 10.141c-.702-.532-1.522-.974-2.458-1.326a17.659 17.659 0 0 0-3.084-.829c-.244-.04-.544-.095-.9-.165a8.37 8.37 0 0 1-1.069-.287 3.278 3.278 0 0 1-.885-.437c-.235-.17-.352-.386-.352-.648 0-.26.092-.467.275-.617.184-.151.438-.261.764-.332.325-.07.722-.105 1.19-.105a6.313 6.313 0 0 1 3.054.798c.488.271.956.618 1.404 1.04l3.847-3.647a8.874 8.874 0 0 0-1.893-1.898c-.733-.543-1.638-.96-2.717-1.25C12.66.145 11.317 0 9.71 0c-1.1 0-2.164.161-3.191.482A9.031 9.031 0 0 0 3.77 1.87a7.008 7.008 0 0 0-1.924 2.17c-.478.843-.717 1.777-.717 2.802 0 .904.147 1.718.442 2.441a5.354 5.354 0 0 0 1.36 1.929c.61.563 1.373 1.045 2.29 1.447.915.402 1.984.743 3.205 1.024.244.06.524.12.84.181.315.06.641.136.977.226.336.09.646.201.931.332.285.13.514.286.687.467.173.18.26.402.26.663 0 .281-.082.502-.245.663-.163.16-.397.276-.702.346-.305.07-.652.106-1.038.106-.977 0-2.02-.206-3.13-.618-1.11-.412-2.173-1.26-3.19-2.547L0 17.721a12.863 12.863 0 0 0 2.489 2.26c.925.643 2.004 1.14 3.236 1.492 1.231.35 2.651.527 4.26.527 1.628 0 3.103-.267 4.427-.799 1.323-.532 2.376-1.32 3.16-2.365.783-1.045 1.175-2.34 1.175-3.888 0-1.085-.188-2.024-.565-2.818a5.335 5.335 0 0 0-1.618-1.989m17.48 3.18c0 .583-.133 1.1-.397 1.552a2.933 2.933 0 0 1-1.069 1.07c-.448.26-.967.391-1.557.391-.55 0-1.043-.13-1.48-.392a2.736 2.736 0 0 1-1.024-1.07c-.244-.451-.366-.968-.366-1.551V.603h-6.656v12.989c0 1.607.407 3.034 1.221 4.28.814 1.245 1.94 2.225 3.374 2.937 1.435.714 3.079 1.07 4.931 1.07 1.852 0 3.496-.356 4.931-1.07 1.435-.712 2.56-1.692 3.374-2.938.814-1.245 1.222-2.672 1.222-4.28V.604h-6.504V13.32zm20.96-4.31a1.711 1.711 0 0 1-.717.648c-.305.15-.651.226-1.038.226h-1.923V6.148h1.923c.387 0 .733.065 1.038.196.306.13.545.327.718.588.172.261.26.602.26 1.024 0 .422-.088.774-.26 1.055m3.374-7.474C57.239.915 55.936.603 54.47.603h-9.617v21.096h6.595V15.43h3.022c1.466 0 2.769-.326 3.909-.98a7.099 7.099 0 0 0 2.687-2.697c.65-1.145.977-2.45.977-3.917 0-1.406-.326-2.652-.977-3.737a6.97 6.97 0 0 0-2.687-2.562m17.754 7.534a1.873 1.873 0 0 1-.763.799c-.336.191-.758.286-1.267.286h-2.809v-4.43h2.687c.55 0 1.002.086 1.359.256.356.171.62.412.793.724.173.311.26.688.26 1.13 0 .482-.087.894-.26 1.235m2.977 4.686a6.74 6.74 0 0 0 2.718-2.576c.651-1.105.977-2.39.977-3.858 0-1.306-.326-2.46-.977-3.465-.652-1.005-1.557-1.798-2.718-2.381-1.16-.583-2.483-.874-3.969-.874H65.126v21.096h6.168v-7.022h1.03l4.008 7.022h7.358l-4.65-7.907c.023-.012.047-.022.07-.035m13.343-.256h8.519V8.56h-8.52V5.877h9.65V.603h-15.97v21.096h16.519v-5.274H92.453V13.5zm24.662-4.083L111.628.603h-5.68v21.095h6.351v-5.032c0-1.949-.046-3.632-.137-5.048-.008-.122-.02-.241-.028-.362l3.86 6.012h2.015l4.002-6.123c-.017.213-.035.425-.048.639a77.995 77.995 0 0 0-.137 4.882v5.032h6.35V.603h-5.495l-5.566 8.815zm21.686 4.083h8.52V8.56h-8.52V5.877h9.649V.603h-15.969v21.096H149v-5.274h-10.198V13.5zm55.724-8.98v2.11c0 .602.015 1.155.046 1.657.03.502.07 1.01.122 1.521.05.513.111 1.07.183 1.673l.037.312L186.708.603h-5.893v21.096h6.351v-5.757c0-.743-.005-1.39-.015-1.943-.01-.553-.03-1.055-.061-1.507a69.408 69.408 0 0 0-.133-1.644l7.965 10.85h5.954V.604h-6.351V4.52zm23.204 8.8c0 .583-.132 1.1-.397 1.552a2.932 2.932 0 0 1-1.068 1.07c-.448.26-.967.391-1.557.391-.55 0-1.044-.13-1.481-.392a2.735 2.735 0 0 1-1.023-1.07c-.244-.451-.366-.968-.366-1.551V.603h-6.657v12.989c0 1.607.407 3.034 1.222 4.28.814 1.245 1.938 2.225 3.374 2.937 1.435.714 3.078 1.07 4.93 1.07 1.853 0 3.497-.356 4.932-1.07 1.435-.712 2.56-1.692 3.374-2.938.813-1.245 1.22-2.672 1.22-4.28V.604h-6.503V13.32zm9.282-7.173h6.595v15.55h6.596V6.149h6.778V.603H227.01v5.545zm49.917 7.986.614-1.657c.224-.623.423-1.155.596-1.598.173-.441.325-.859.458-1.25.078-.23.153-.472.227-.723a25.708 25.708 0 0 0 .643 1.973c.163.443.356.975.58 1.598l.615 1.657h-3.733zm-16.163-5.063a1.874 1.874 0 0 1-.763.799c-.336.191-.759.286-1.267.286h-2.81v-4.43h2.688c.55 0 1.002.086 1.358.256.356.171.621.412.794.724.173.311.26.688.26 1.13 0 .482-.087.894-.26 1.235zM281.481.603h-5.19l-8.33 20.481-4.29-7.292c.023-.012.048-.022.071-.035a6.74 6.74 0 0 0 2.717-2.576c.652-1.105.978-2.39.978-3.858 0-1.306-.326-2.46-.978-3.465-.651-1.005-1.556-1.798-2.717-2.381-1.16-.583-2.483-.874-3.97-.874h-10.014v21.096h6.168v-7.022h1.03l4.008 7.022h13.158l1.163-3.135h7.019l1.162 3.135H290L281.481.603z" fill="#EDEDED"/>
        <path d="m164.265 0 .289.004c5.941.15 10.711 4.947 10.711 10.842v.308c0 5.99-4.925 10.846-11 10.846l-.288-.004c-5.942-.15-10.712-4.947-10.712-10.842v-.308c0-5.99 4.925-10.846 11-10.846zm5.824 7.024h-7.39a3.695 3.695 0 0 0-2.611 6.306l-1.647 1.646h7.39a3.695 3.695 0 0 0 2.61-6.305l1.648-1.647zm-4.54 2.085a1.89 1.89 0 0 1 1.89 1.891l-.005.148a1.891 1.891 0 0 1-1.885 1.743h-5.022l1.035-1.035c-.3-.3-.482-.718-.471-1.177.021-.879.763-1.57 1.642-1.57z" fill="#FF01FF"/>
    </g>
</svg>
